<svg xmlns="http://www.w3.org/2000/svg" height="40" viewBox="0 -960 960 960" width="40"><path d="m421-297 291.666-293.667L643-661.333l-222 222-109-109-70 70L421-297ZM196.666-90.667q-44.308 0-75.153-31.346-30.846-31.345-30.846-74.653V-764q0-43.308 30.846-74.987 30.845-31.679 75.153-31.679h163.001q15.333-35.333 47-57.833 31.666-22.5 73.333-22.5t73.333 22.5q31.667 22.5 47 57.833h163.001q44.308 0 75.487 31.679Q870-807.308 870-764v567.334q0 43.308-31.179 74.653-31.179 31.346-75.487 31.346H196.666Zm283.334-698q17.133 0 28.567-11.433Q520-811.533 520-828.667q0-17.133-11.433-28.566-11.434-11.434-28.567-11.434-17.133 0-28.567 11.434Q440-845.8 440-828.667q0 17.134 11.433 28.567 11.434 11.433 28.567 11.433Z"/></svg>