<svg xmlns="http://www.w3.org/2000/svg" height="40" viewBox="0 -960 960 960" width="40"><path d="M674.001-38.667v-120h-120v-106.666h120v-120H780v120h120v106.666H780v120H674.001ZM196.666-130q-43.824 0-74.912-31.788Q90.667-193.575 90.667-236v-501.001q0-44.099 31.087-75.382 31.088-31.284 74.912-31.284H241v-66.999h90.333v66.999h217.334v-66.999H639v66.999h44.334q44.099 0 75.382 31.284Q790-781.1 790-737.001v279.668q-27-6.667-53.333-7.5-26.334-.833-53.333 2.833v-106H196.666v332h278.001q-2.333 26.5 1.286 52.5T487-130H196.666Z"/></svg>