<svg xmlns="http://www.w3.org/2000/svg" height="40" viewBox="0 -960 960 960" width="40"><path d="M340.667-284 480-423.334 619.333-284 676-340.667 536.666-480 676-619.333 619.333-676 480-536.666 340.667-676 284-619.333 423.334-480 284-340.667 340.667-284ZM479.786-50.667q-88.426 0-167.253-33.27-78.827-33.271-137.076-91.52-58.249-58.249-91.52-137.071-33.27-78.823-33.27-167.38 0-89.238 33.33-167.666 33.329-78.427 91.698-136.948 58.369-58.521 136.965-91.999Q391.257-910 479.557-910q89.329 0 168.036 33.427Q726.3-843.146 784.63-784.7q58.331 58.445 91.85 137.015Q910-569.115 910-479.611q0 88.795-33.479 167.164-33.478 78.368-91.999 136.745-58.521 58.376-136.954 91.706-78.433 33.329-167.782 33.329Z"/></svg>