<svg xmlns="http://www.w3.org/2000/svg" height="40" viewBox="0 -960 960 960" width="40"><path d="M473.667-339.667q66.666 0 114-42.667Q635-425 635-486.686q0-53.981-34.167-91.814-34.166-37.833-83.85-37.833-44.649 0-75.149 28.333t-30.5 69.296q0 17.795 6.333 34.583 6.333 16.787 20.667 30.454l48.333-47Q483-504 480.5-508.238q-2.5-4.238-2.5-9.445 0-11.65 10.667-21.317 10.666-9.667 28-9.667 20.333 0 36.5 18.167 16.167 18.166 16.167 44.5 0 33.667-26.834 57.167-26.833 23.5-67.833 23.5-49 0-83.834-39.667Q356-484.667 356-543q0-30.333 10.833-57.833 10.834-27.501 33.167-48.834l-47.879-47.666Q321-667 304.667-627.215 288.334-587.431 288.334-544q0 85.333 53.666 144.833 53.667 59.5 131.667 59.5ZM215-55v-186q-57.333-54.667-88.666-127.281Q95-440.895 95-519.76q0-161.545 111.864-274.059Q318.728-906.333 479.46-906.333q134.207 0 236.952 79.94T852.333-621l55.333 220.667q6.667 26-8.833 45.666Q883.333-335 856.334-335h-70.001v94.001q0 44.366-31.346 75.182Q723.642-135 679.667-135h-53.334v80H215Z"/></svg>