<svg xmlns="http://www.w3.org/2000/svg" height="40" viewBox="0 -960 960 960" width="40"><path d="M479.573-244q20.574 0 36.167-15.24 15.593-15.239 15.593-36.145 0-20.906-15.499-35.76Q500.334-346 479.427-346q-20.907 0-36.167 14.708-15.259 14.707-15.259 36.053 0 20.572 15.252 35.905Q458.506-244 479.573-244Zm-45.239-149H517q0-25.512 6.833-46.422 6.833-20.911 37.5-48.911 28-21.667 40.833-47.356Q615-561.377 615-594.565q0-57.712-34.849-90.74-34.848-33.028-92.182-33.028-56.969 0-97.635 30.833-40.667 30.833-58.667 78.598l76.666 28.568q9-25 27.991-42.5t44.676-17.5q22.667 0 37.667 14.018t15 35.106q0 17.21-10.976 34.877T495-525q-33 28.333-46.833 55.547Q434.334-442.24 434.334-393Zm45.452 342.333q-88.426 0-167.253-33.27-78.827-33.271-137.076-91.52-58.249-58.249-91.52-137.071-33.27-78.823-33.27-167.38 0-89.238 33.33-167.666 33.329-78.427 91.859-136.922 58.53-58.494 136.966-91.999Q391.257-910 479.557-910q89.329 0 168.082 33.437 78.753 33.436 137.028 91.826 58.275 58.391 91.804 137.006Q910-569.115 910-479.611q0 88.795-33.505 167.002-33.505 78.208-91.999 136.746-58.495 58.537-136.928 91.867-78.433 33.329-167.782 33.329Z"/></svg>