<svg xmlns="http://www.w3.org/2000/svg" height="40" viewBox="0 -960 960 960" width="40"><path d="M478.037-90.667q-159.956 0-272.133-109.451Q93.727-309.57 91-467.334h106.666q5.435 114.2 85.901 192.434 80.467 78.234 194.1 78.234 118.273 0 202.137-83.466 83.863-83.465 83.863-202.582 0-117.953-84.164-199.286Q595.338-763.334 478-763.334q-59.73 0-113.365 24.334Q311-714.667 272-671.667h84v82.332H112.001v-241.998h79.333v89q55-60 129.299-93.833Q394.933-870 478-870q80.475 0 151.598 30.9 71.124 30.9 124.131 83.273 53.007 52.372 83.972 122.901 30.965 70.53 30.965 151.728 0 81.198-30.965 152.259-30.965 71.061-83.972 124.1-53.007 53.039-124.131 83.605-71.123 30.567-151.561 30.567Zm117.297-216.667-155-153.043v-222.29h80.332v187.513l132.001 129.487-57.333 58.333Z"/></svg>