<svg xmlns="http://www.w3.org/2000/svg" height="40" viewBox="0 -960 960 960" width="40"><path d="M580.314-246.667q22.353 0 38.019-15.647 15.667-15.647 15.667-38t-15.784-38.019Q602.431-354 579.882-354q-22.549 0-37.882 15.784-15.333 15.785-15.333 38.334 0 22.549 15.647 37.882 15.647 15.333 38 15.333ZM378-251l251.666-251L582-549.666 331-298l47 47Zm2.314-195.667q22.353 0 38.019-15.647 15.667-15.647 15.667-38t-15.784-38.019Q402.431-554 379.882-554q-22.549 0-37.882 15.784-15.333 15.785-15.333 38.334 0 22.549 15.647 37.882 15.647 15.333 38 15.333Zm99.714 396.666q-149.773 0-249.9-102.449Q130-254.9 130-407.521q0-107.086 86.667-233.949Q303.334-768.333 480-918.999q176.666 150.666 263.666 277.571 87 126.905 87 233.894 0 152.485-100.433 255.009Q629.801-50 480.028-50Z"/></svg>