<svg xmlns="http://www.w3.org/2000/svg" height="40" viewBox="0 -960 960 960" width="40"><path d="M435.334-267H528v-253h-92.666v253Zm44.596-313q22.903 0 37.82-14.624 14.916-14.625 14.916-37.2 0-24.642-14.812-39.075-14.813-14.433-37.667-14.433-24.354 0-38.603 14.257-14.25 14.258-14.25 38.233 0 23.409 14.846 38.126Q457.026-580 479.93-580Zm.034 529.333q-88.916 0-167.587-33.27-78.671-33.271-136.92-91.52-58.249-58.249-91.52-136.965-33.27-78.716-33.27-167.819 0-89.118 33.33-167.439 33.329-78.321 91.859-136.816 58.53-58.494 136.859-91.999Q391.045-910 479.89-910q89.209 0 167.855 33.437 78.647 33.436 136.922 91.826 58.275 58.391 91.804 137.006Q910-569.115 910-479.788q0 89.284-33.505 167.335-33.505 78.052-91.999 136.467-58.495 58.415-136.928 91.867-78.433 33.452-167.604 33.452Z"/></svg>