<svg xmlns="http://www.w3.org/2000/svg" height="40" viewBox="0 -960 960 960" width="40"><path d="M479.955-279.667q-83.044 0-141.666-58.622t-58.622-141.666q0-83.045 58.622-142.045 58.622-59 141.666-59Q563-681 622-622q59 59 59 142.045 0 83.044-59 141.666t-142.045 58.622ZM73.333-427.334q-21.45 0-37.058-15.638-15.608-15.639-15.608-37.133 0-21.495 15.608-37.361 15.608-15.867 37.058-15.867h93.334q21.733 0 37.533 15.834 15.8 15.833 15.8 37.616 0 21.499-15.8 37.024-15.8 15.525-37.533 15.525H73.333Zm720 0q-21.45 0-37.058-15.638-15.608-15.639-15.608-37.133 0-21.495 15.608-37.361 15.608-15.867 37.058-15.867h93.334q21.733 0 37.533 15.834 15.8 15.833 15.8 37.616 0 21.499-15.8 37.024-15.8 15.525-37.533 15.525h-93.334Zm-313.45-313.333q-21.499 0-37.024-15.608-15.525-15.608-15.525-37.058v-93.334q0-21.733 15.638-37.533 15.639-15.8 37.133-15.8 21.495 0 37.361 15.8 15.867 15.8 15.867 37.533v93.334q0 21.45-15.834 37.058-15.833 15.608-37.616 15.608Zm0 720q-21.499 0-37.024-15.608-15.525-15.608-15.525-37.058v-93.334q0-21.733 15.638-37.533 15.639-15.8 37.133-15.8 21.495 0 37.361 15.8 15.867 15.8 15.867 37.533v93.334q0 21.45-15.834 37.058-15.833 15.608-37.616 15.608ZM222.334-664 170-715.334q-16.333-14.333-16.253-36.735.081-22.402 16.184-38.666 14.264-15.598 36.333-15.598t38.069 15.666l52.334 52.334q15.333 15.242 15.166 36.754-.167 21.512-14.966 36.445-15.134 16.467-37.5 17.3Q237-647 222.334-664Zm494 494L664-222.334q-16-14.333-16-35.916t16.334-37.417q13.999-15.666 36.199-15.583 22.2.084 37.8 15.583l52.334 50.334q15.666 15 15.586 37.402-.081 22.402-15.518 38-15.22 16.264-37.144 16.264T716.334-170ZM664.8-663.8q-16.133-14.967-15.966-37.083Q649-723 665-738.333l50.334-52.334q14.333-15.666 36.735-15.586 22.402.081 38.666 15.518 15.598 15.22 15.598 37.144t-15.666 37.257L738.333-664q-15 16-36.542 15.833-21.542-.167-36.991-15.633ZM169.931-169.931q-16.264-14.264-16.264-36.333T170-244.333l52.334-52.334q14.2-15.333 35.766-15.666 21.567-.333 37.045 15.666 16.188 15 16.021 37.334Q311-237 295.667-222.334L245.333-170q-15 16.333-37.402 16.253-22.402-.081-38-16.184Z"/></svg>