<svg xmlns="http://www.w3.org/2000/svg" height="40" viewBox="0 -960 960 960" width="40"><path d="M236-667.666h345.334v-66.18q0-44.932-29.355-74.543Q522.624-838 480.118-838q-42.507 0-71.979 29.611-29.473 29.611-29.473 74.389H272.667q0-88.226 60.678-149.446 60.677-61.22 146.476-61.22t146.655 61.345Q687.333-821.976 687.333-734v66.334H724q43.45 0 75.058 30.908Q830.666-605.85 830.666-561v403q0 43.175-31.608 74.587Q767.45-52 724-52H236q-43.175 0-74.587-31.412Q130-114.825 130-158v-403q0-44.85 31.413-75.758 31.412-30.908 74.587-30.908Zm244.218 387.332q33.115 0 55.615-22.798t22.5-54.812q0-31.389-22.718-55.723Q512.897-438 479.782-438q-33.115 0-55.615 24.296t-22.5 55.81q0 31.927 22.718 54.744 22.718 22.816 55.833 22.816Z"/></svg>