<svg xmlns="http://www.w3.org/2000/svg" height="40" viewBox="0 -960 960 960" width="40"><path d="M414.334-403H495v-266.667h-80.666V-403Zm134-68.667H629v-158h-80.666v158Zm-269-11.333H361v-146.667h-81.666V-483ZM215-55v-186q-57.333-54.667-88.666-127.281Q95-440.895 95-519.76q0-161.879 111.697-274.226Q318.394-906.333 479.46-906.333q134.207 0 236.952 79.94T852.333-621l55.333 220.667q6.667 26-8.833 45.666Q883.333-335 856.334-335h-70.001v94.001q0 44.199-31.429 75.099-31.429 30.9-75.237 30.9h-53.334v80H215Z"/></svg>