<svg xmlns="http://www.w3.org/2000/svg" height="40" viewBox="0 -960 960 960" width="40"><path d="M310.333-170 90.667-480l219.666-310.666H870V-170H310.333Zm58.357-259.333q21.733 0 36.522-14.546Q420-458.424 420-480.187q0-21.763-15.146-36.121-15.146-14.359-36.579-14.359-21.859 0-36.734 14.546-14.874 14.545-14.874 36.308 0 21.763 15.144 36.121 15.145 14.359 36.879 14.359Zm155.702 0q22.558 0 37.083-14.546Q576-458.424 576-480.187q0-21.763-14.654-36.121-14.653-14.359-36.878-14.359t-36.513 14.546q-14.288 14.545-14.288 36.308 0 21.763 14.508 36.121 14.509 14.359 36.217 14.359Zm156.14 0q22.032 0 37.084-14.546 15.051-14.545 15.051-36.308 0-21.763-15.202-36.121-15.201-14.359-36.716-14.359-22.365 0-36.39 14.546-14.025 14.545-14.025 36.308 0 21.763 14.083 36.121 14.084 14.359 36.115 14.359Z"/></svg>