<svg xmlns="http://www.w3.org/2000/svg" height="40" viewBox="0 -960 960 960" width="40"><path d="m830.666-264.666-403-403h153.668v-65.667q0-43.334-30.667-74.001Q520-838 477.333-838 434-838 403.5-808.834 373-779.667 373-735.667v12.001l-85.667-84.333q17.334-62.667 70.667-99.667t119.333-37q86.667 0 148.333 61 61.667 61 61.667 147.999v68.001H724q44.333 0 75.5 31.166 31.166 31.167 31.166 75.5v296.334Zm42.335 285.667-92.668-90.668q-12 9.666-26.666 13.666Q739-52 724-52H236q-44.333 0-75.166-31.166Q130-114.333 130-158v-403q0-33.667 17-60.667T195.334-656L.333-850.668l56.666-57.666L928.667-34.666l-55.666 55.667ZM428-424q-10.333 10.333-16.333 25.667-6 15.333-6 30.333 0 31.666 22.333 54 22.333 22.333 55 22.333 15.667 0 30-5.833 14.333-5.834 25-16.5L428-424Z"/></svg>