<svg xmlns="http://www.w3.org/2000/svg" height="40" viewBox="0 -960 960 960" width="40"><path d="M480-50.667q-88.319 0-166.159-33.667Q236-118 176.667-177q-59.333-59-92.666-137.218-33.334-78.217-33.334-166.338 0-89.777 34.095-168.003 34.095-78.226 93.619-136.324 59.524-58.099 139.121-91.608Q397.098-910 486.411-910q85.092 0 161.876 29.007t134.915 80.667Q841.333-748.667 876-677.633q34.666 71.033 34.666 152.299 0 117.333-67.166 191.5-67.167 74.167-180.833 74.167H608q-13.001 0-21.501 9.428-8.5 9.429-8.5 21.477 0 14.762 9.334 23.596 9.333 8.833 9.333 31.588 0 42.911-36.033 82.91-36.033 40-80.633 40ZM260.833-448.334q22.5 0 38.333-16.023 15.833-16.023 15.833-38.333T298.933-541q-16.067-16-37.6-16-23 0-38.5 16.023-15.5 16.024-15.5 38.334 0 22.309 15.5 38.309 15.5 16 38 16Zm118.834-159.667q23.333 0 39.166-15.499 15.833-15.5 15.833-38.334 0-23.499-15.833-38.666Q403-715.667 380.5-715.667q-23.167 0-38.333 15.4-15.167 15.4-15.167 37.6Q327-639 342.4-623.5q15.4 15.499 37.267 15.499Zm199.5 0q22.833 0 38.666-15.499 15.834-15.5 15.834-38.334 0-23.499-16.067-38.666-16.067-15.167-37.6-15.167-23.666 0-38.833 15.4-15.166 15.4-15.166 37.6 0 23.667 15.166 39.167 15.167 15.499 38 15.499Zm120.167 159.667q23 0 38.833-16.023Q754-480.38 754-502.69T738.167-541q-15.833-16-38.333-16-23.167 0-38.333 16.023-15.167 16.024-15.167 38.334 0 22.309 15.4 38.309 15.4 16 37.6 16Z"/></svg>