<svg xmlns="http://www.w3.org/2000/svg" height="40" viewBox="0 -960 960 960" width="40"><path d="M445-369h67.666L517-416q10.666-2 19.5-7 8.833-5 16.167-12.334l42 15.667L628.333-475l-33.666-26.333q3.666-12.334 3.666-24.167 0-11.834-3.666-25.167L628.333-576l-33.666-55.333-42 15.667q-7.334-7.334-16.5-12.834Q527-634 517-636l-4.334-46H445l-3.333 46q-10 2-19.167 7.5-9.167 5.5-16.5 12.834l-41.333-15.667L330.334-576 363-550.667q-3.667 13.333-3.667 25.167 0 11.833 3.667 24.167L330.334-475l34.333 55.333L406-435.334Q413.333-428 422.167-423q8.833 5 19.5 7L445-369Zm34.667-90q-27.667 0-47.334-19.667-19.666-19.666-19.666-47.333 0-27.667 19.666-47.333Q452-593 479.667-593q27 0 47 19.667 20 19.666 20 47.333 0 27.667-20 47.333-20 19.667-47 19.667ZM215-55v-186q-57.333-54.667-88.666-127.333Q95-441 95-520q0-161.722 111.746-274.028Q318.492-906.333 479.89-906.333q133.777 0 236.61 80.167Q819.333-746 852.333-621l55.333 220.667q6.667 26-9.06 45.666Q882.879-335 856.334-335h-70.001v94.001q0 44.366-31.346 75.182Q723.642-135 679.667-135h-53.334v80H215Z"/></svg>