<svg xmlns="http://www.w3.org/2000/svg" height="40" viewBox="0 -960 960 960" width="40"><path d="M215-55v-186q-57.333-54.667-88.666-127.281Q95-440.895 95-519.76q0-161.545 111.864-274.059Q318.728-906.333 479.46-906.333q134.207 0 236.952 79.94T852.333-621l55.333 220.667q6.667 26-8.833 45.666Q883.333-335 856.334-335h-70.001v94.001q0 44.366-31.346 75.182Q723.642-135 679.667-135h-53.334v80H215Zm255.351-237q22.982 0 36.316-13.961Q520-319.922 520-340.559t-14.225-34.539Q491.55-389 470.591-389q-20.959 0-34.775 13.874Q422-361.252 422-340.977t13.434 34.626Q448.869-292 470.351-292ZM432-430h79q0-30.891 7.606-46.843 7.606-15.952 32.061-43.157Q574-546 585-565.5t11-45.833q0-46.16-35.123-77.414Q525.754-720 473.525-720 431-720 396-693q-35 27-49.666 70l69.919 29q6.414-23.334 22.533-37.167Q454.905-645 474.248-645q18.151 0 29.952 9.038 11.8 9.039 11.8 24.489 0 12.515-8.166 26.327-8.167 13.813-26.915 33.883Q453-521.667 442.5-496.167 432-470.667 432-430Z"/></svg>