<svg xmlns="http://www.w3.org/2000/svg" height="40" viewBox="0 -960 960 960" width="40"><path d="M187.666-41.667q-43.583 0-74.791-31.208t-31.208-74.791v-505.335q0-43.432 31.208-75.049 31.208-31.616 74.791-31.616h39.668v-200h505.999v200h39.668q43.432 0 75.049 31.616 31.616 31.617 31.616 75.049v505.335q0 43.583-31.616 74.79-31.617 31.209-75.049 31.209H187.666Zm145.667-717.999h294.001v-93.335H333.333v93.335ZM480-400Zm-.527 190q79.831 0 135.179-55.445Q670-320.891 670-399.473q0-79.831-55.314-135.179T480.04-590q-79.332 0-134.686 55.314Q290-479.372 290-400.04t55.445 134.686Q400.891-210 479.473-210ZM526-316.667l-73.333-72.701v-117.965h54.666v96.895l56 56.438L526-316.667Z"/></svg>