<svg xmlns="http://www.w3.org/2000/svg" height="40" viewBox="0 -960 960 960" width="40"><path d="M479.333-108.667q-19.725 0-38.529-7.5-18.804-7.5-32.137-22.5l-268-269Q124.333-423 112-441.334q-12.333-18.333-20.667-39.333h389.262q19.405 0 32.905 13.5T527-434q0 19.333-13.5 33-13.5 13.667-33.167 13.667-13.666 0-25.873-7.667t-17.127-20L373-396.999q11.667 35.332 41.5 55.832t65.833 20.5q47.334 0 80.333-33.167 33-33.166 33-80.166 0-11.667-2.666-23.667-2.667-12-7.667-23H639q46.333 0 79.833-33.167 33.5-33.166 33.5-79.906 0-47.593-33.5-80.593t-79.833-33q-37 0-66.833 20.666-29.833 20.667-40.5 56L596-613q5-12.667 17-20.167 12-7.5 26-7.5 18.667 0 32.667 13.5t14 33.167q0 19.333-13.948 33-13.949 13.667-32.539 13.667H71.323q-.99-10.667-1.823-20.5-.833-9.834-.833-20.032Q68.667-698 139.927-775 211.188-852 314-852q45.333 0 88.144 17.5 42.812 17.5 77.998 50.167Q514.333-817 556.833-834.5T645-852q104.333 0 175.667 76.34Q892-699.32 892-589.626q0 51.618-19.167 98.455-19.166 46.838-52.833 82.504l-269 270q-14 15-32.48 22.5-18.48 7.5-39.187 7.5Z"/></svg>