<svg xmlns="http://www.w3.org/2000/svg" height="40" viewBox="0 -960 960 960" width="40"><path d="m356.667-50.667-20.333-135.667Q326-189.667 313.5-197.001q-12.5-7.333-20.834-14l-126.999 56.667L41.001-374.666l112.666-83q-.666-4-.5-11 .167-7.001.167-11.667 0-4.667-.167-10.834-.166-6.167.5-11.5L41.001-587l124.666-217.999 128.333 56q8-5 20.5-12.334Q327-768.666 336.667-772l20-138.333h247.332l19.334 137.667q11.333 3.333 23.667 10.667 12.333 7.333 21 13.333l127.667-56.333L919.666-587l-114.667 82.333q.667 6 1.667 12.667t1 12q0 5.333-1.167 11.667-1.166 6.333-1.833 11.667l114.667 82-126 220.332-126.666-56.667q-8.334 6.334-21 14.167Q633-189 624.333-186.667l-20.334 136H356.667Zm122-294.667q56.333 0 95.666-39.333t39.333-95.666q0-55.333-39.333-95.167-39.333-39.833-95.666-39.833-57 0-96 39.833-39 39.834-39 95.167 0 56.333 39 95.666t96 39.333Z"/></svg>