<svg xmlns="http://www.w3.org/2000/svg" height="40" viewBox="0 -960 960 960" width="40"><path d="m798-17.668-86.333-85.666q-49.334 37.333-106.334 56.666-57 19.334-125.333 19.334-80.667 0-151.833-30.5-71.167-30.5-124.167-83t-83.166-123.667q-30.167-71.166-30.167-151.833 0-61 18.5-119.666 18.5-58.667 57.834-112.001l-121.334-122 57.666-55.666L855.667-74.334 798-17.668ZM333.334-852.667v-93.666h293.332v93.666H333.334ZM818.666-226l-292-290.333v-104.001h-68.332l-1 34.001L288-754q42.666-26.333 91.333-39.333t100.667-13q70.667 0 131.167 21.5T719-723l62.666-63.333 67.333 67.666L785.666-656q44 49 64.167 110.333T870-416.334q0 53-12.834 100.834-12.833 47.833-38.5 89.5Z"/></svg>