<svg xmlns="http://www.w3.org/2000/svg" height="40" viewBox="0 -960 960 960" width="40"><path d="M333.334-852.667v-93.666h293.332v93.666H333.334Zm100.666 469h92.666v-236.667H434v236.667Zm45.844 356.333q-81.04 0-152.001-30.44-70.961-30.438-123.928-83.053-52.968-52.615-83.108-123.523-30.14-70.907-30.14-151.888 0-80.981 30.14-151.984 30.14-71.004 83.133-123.618 52.992-52.615 123.987-83.554Q398.921-806.333 480-806.333q68.743 0 128.871 21.166Q669-764 718.333-723.667L781-787l67.999 68.333L785.666-656q39 46.333 61.667 104.833T870-416.334q0 81.122-30.409 152.156-30.408 71.033-83.47 123.554-53.061 52.52-124.149 82.905-71.087 30.385-152.128 30.385Z"/></svg>